<?xml version="1.0" encoding="UTF-8"?>
<svg id="Capa_1" xmlns="http://www.w3.org/2000/svg" version="1.1" viewBox="0 0 1080 1080">
  <!-- Generator: Adobe Illustrator 29.3.1, SVG Export Plug-In . SVG Version: 2.1.0 Build 151)  -->
  <defs>
    <style>
      .st0, .st1 {
        fill: #273532;
      }

      .st2, .st3 {
        font-size: 29.14px;
      }

      .st2, .st3, .st1, .st4, .st5, .st6, .st7 {
        font-family: Aeonik-Regular, Aeonik;
      }

      .st2, .st8 {
        fill: #302e2b;
      }

      .st3, .st9 {
        fill: #87868a;
      }

      .st1, .st5, .st7 {
        font-size: 29.14px;
      }

      .st10, .st7 {
        fill: #edeef0;
      }

      .st11 {
        fill: #df8c37;
      }

      .st12, .st4, .st5, .st6 {
        fill: #fff;
      }

      .st4 {
        font-size: 29.14px;
      }

      .st6 {
        font-size: 30.29px;
      }
    </style>
  </defs>
  <rect class="st12" x="1097.37" y="-1128.23" width="1080" height="1080"/>
  <rect class="st9" x="2200" y="-1128.23" width="1080" height="1080"/>
  <rect class="st10" x="3300" y="-1128.23" width="1080" height="1080"/>
  <rect class="st0" x="-2200" y="-1128.23" width="1080" height="1080"/>
  <rect class="st11" x="-1100" width="1080" height="1080"/>
  <rect class="st0" x="-1100" y="-1128.23" width="1080" height="1080"/>
  <rect class="st8" y="-1128.23" width="1080" height="1080"/>
  <g>
    <polygon class="st0" points="-2789.17 -648.77 -2741.42 -648.77 -2741.42 -565.88 -2718.53 -565.88 -2718.53 -648.77 -2681.35 -648.77 -2681.35 -668.27 -2799.13 -668.27 -2789.17 -648.77"/>
    <polygon class="st11" points="-3178.23 -559.1 -3131.76 -559.1 -3131.76 -672.76 -3178.23 -642.37 -3178.23 -559.1"/>
    <polygon class="st11" points="-3118.55 -559.1 -3072.08 -559.1 -3072.08 -672.76 -3118.55 -642.37 -3118.55 -559.1"/>
    <polygon class="st11" points="-3058.87 -559.1 -3012.4 -589.48 -3012.4 -615.93 -3058.87 -615.93 -3058.87 -559.1"/>
    <path class="st0" d="M-2895.63-564.55l-1.75.18c-.61.07-1.25.14-1.88.18-1.9.1-3.78.17-5.63.23-1.99.04-3.81.13-5.56.21-2.07.11-3.96.17-5.76.17h-5.64c-12.34,0-23-1.32-31.68-3.92-10.26-3.24-15.44-11.97-15.44-25.96v-1.57c0-.61.05-1.11.15-1.53v-.18c0-.34.06-.67.17-1.01,0-.46.03-1.01.06-1.68.06-.81.08-1.28.08-1.47v-2.06h22.4v2.06c0,12.32,1.89,15.28,2.71,15.98.88.84,4.19,2.63,17.39,2.63h11.16c8.68,0,14.8-.8,18.17-2.36,1.78-.99,2.82-4.75,2.82-10.53,0-6.11-1.28-8.26-2.05-9-.57-.57-2.81-1.88-11.61-2.27-1.68-.08-3.39-.16-5.17-.2-1.77-.06-3.54-.08-5.31-.08-6.4-.21-12.3-.67-17.58-1.36-5.64-.73-10.7-1.67-15.47-2.86-11.4-2.93-17.18-11.96-17.18-26.83,0-13.56,4.7-22.26,13.96-25.86,7.71-3.06,18.12-4.61,30.93-4.61h3.27c10.9,0,20.29.95,27.98,2.82,2.92.71,5.75,1.73,8.39,3.19,1,.55,2,1.18,2.84,1.85,5.26,4.5,7.92,11.92,7.92,22.15v6.22h-22.44l-.12-1.93c-.6-9.31-2.37-12-3.37-12.78-1.16-1-4.46-2.55-14.51-2.55h-6.38c-1.21,0-2.5.03-3.89.07h-.61c-1.6.05-3.35.14-5.21.24h-1.59c-2.04.17-4.23.42-6.34.72-1.86.25-3.28.66-4.23,1.22l-.25.12c-.97.41-1.69.99-2.14,1.73-.57.92-.92,1.91-1.06,2.99-.1.76-.15,1.43-.15,2.03v1.83c0,4.13.69,7.07,2.07,8.77.38.47,2.22,2.02,10.76,2.64,2.39.18,4.76.28,7.28.28h7.29c5.72.1,11.32.51,16.69,1.21,5.33.72,10.14,1.63,14.3,2.73h0c7.16,1.88,11.95,4.52,14.32,11.87"/>
    <polygon class="st0" points="-2664.24 -564.72 -2579.52 -564.72 -2579.52 -583.41 -2641.83 -583.41 -2641.83 -608.44 -2582.05 -608.44 -2582.05 -627.13 -2641.83 -627.13 -2641.83 -649.33 -2579.52 -649.33 -2579.52 -668.32 -2664.24 -668.32 -2664.24 -564.72"/>
    <path class="st0" d="M-2488.2-629.03l22.65-.06v-2.46c-.73-16.38-5.44-26.29-11.88-30.89-3.05-2.18-7.31-3.75-13.02-4.81-5.46-1.01-12.44-1.52-20.75-1.52h-5.8c-1.89,0-3.89.05-5.91.15-1.79.1-3.72.22-5.76.38-2.06.15-3.99.33-5.77.52-6.42.61-12.03,1.91-16.66,3.87-2.75,1.17-5.13,2.58-7.1,4.22-1.63,1.25-3.71,3.88-3.71,3.88-4.61,6.18-6.95,14.45-6.95,24.57v20.54c.1,10.27,1.64,20.09,4.57,29.19,3.55,10.45,14.63,16.27,33.04,17.31,0,0,27.03.93,35.69-.6,9.94-1.75,17.71-3.69,22.75-8.51,5.11-4.89,7.5-11.63,7.5-19.61l-.14-6.43-.1-6.87h-22.7v6.59l.15,8.58c.01,3.08-1.71,4.79-2.82,5.35-2.16,1.1-5.32,1.8-9.41,2.08-3.73.29-7.36.47-10.8.51-4.51.07-9.12.22-14.16,0-1.12-.05-2.31-.12-3.61-.23-3.02-.18-5.82-.61-8.3-1.27-2.12-.56-3.6-1.44-4.41-2.6l-.69-.99c-.67-1.26-1.18-2.79-1.51-4.56-.48-2.54-.82-5.24-1.01-8.01-.09-1.67-.17-3.29-.22-4.86-.05-1.57-.08-3.09-.08-4.62l-.14-4.85v-16.84c0-5.93.89-10.32,2.69-13.12.74-1.25,3.33-3.43,12.45-3.9,4.16-.2,8.3-.34,12.29-.44,4.06-.1,8.19-.25,12.3-.15,10.6.26,13.06,1.89,13.57,2.61,0,0,3.6,2.97,3.77,17.84"/>
    <path class="st0" d="M-2769.14-569.49c-14.6-31.69-26.54-57.59-35.81-77.67-1.2-2.61-2.35-5.1-3.47-7.5l-10.58,26.23c1.15,2.66,2.27,5.24,3.35,7.75,2.28,5.29,4.42,10.25,6.43,14.9h-31.17c5.42-12.46,10.31-23.65,14.66-33.58.34-.77.68-1.54,1.01-2.29l10.05-26.52-.06-.15h-19.33l-.65,1.42c-22.72,49.34-37.37,81.2-44.78,97.42l-1.62,3.59h23.33l9.27-21.32h47.29c3.55,8.19,6.38,14.79,8.54,19.83l.64,1.49h24.55l-1.66-3.61Z"/>
    <path class="st0" d="M-2352.65-569.49c-14.6-31.69-26.54-57.59-35.82-77.67-1.2-2.61-2.35-5.09-3.46-7.5l-10.58,26.23c1.15,2.66,2.26,5.25,3.35,7.75,2.28,5.29,4.42,10.25,6.43,14.9h-31.17c5.42-12.46,10.31-23.66,14.66-33.58.34-.77.68-1.54,1.01-2.29l10.05-26.51-.06-.15h-19.33l-.65,1.42c-22.72,49.34-37.37,81.2-44.77,97.42l-1.62,3.59h23.33l9.27-21.32h47.29c3.54,8.19,6.39,14.79,8.54,19.83l.64,1.49h24.55l-1.66-3.61Z"/>
    <text class="st1" transform="translate(-2968.54 -510.31)"><tspan x="0" y="0">Servicios de asistencia técnica a empresas C.A.</tspan></text>
  </g>
  <g>
    <polygon class="st12" points="-1689.17 -648.77 -1641.42 -648.77 -1641.42 -565.88 -1618.53 -565.88 -1618.53 -648.77 -1581.35 -648.77 -1581.35 -668.27 -1699.14 -668.27 -1689.17 -648.77"/>
    <polygon class="st11" points="-2078.23 -559.1 -2031.76 -559.1 -2031.76 -672.76 -2078.23 -642.37 -2078.23 -559.1"/>
    <polygon class="st11" points="-2018.55 -559.1 -1972.08 -559.1 -1972.08 -672.76 -2018.55 -642.37 -2018.55 -559.1"/>
    <polygon class="st11" points="-1958.87 -559.1 -1912.4 -589.48 -1912.4 -615.93 -1958.87 -615.93 -1958.87 -559.1"/>
    <path class="st12" d="M-1795.63-564.55l-1.75.18c-.61.07-1.25.14-1.88.18-1.9.1-3.78.17-5.63.23-1.99.04-3.81.13-5.56.21-2.07.11-3.96.17-5.76.17h-5.64c-12.34,0-23-1.32-31.68-3.92-10.26-3.24-15.44-11.97-15.44-25.96v-1.57c0-.61.05-1.11.15-1.53v-.18c0-.34.06-.67.17-1.01,0-.46.03-1.01.06-1.68.06-.81.08-1.28.08-1.47v-2.06h22.4v2.06c0,12.32,1.89,15.28,2.71,15.98.88.84,4.19,2.63,17.39,2.63h11.16c8.68,0,14.8-.8,18.17-2.36,1.78-.99,2.82-4.75,2.82-10.53,0-6.11-1.28-8.26-2.05-9-.57-.57-2.81-1.88-11.61-2.27-1.68-.08-3.39-.16-5.17-.2-1.77-.06-3.54-.08-5.31-.08-6.4-.21-12.3-.67-17.58-1.36-5.64-.73-10.7-1.67-15.47-2.86-11.4-2.93-17.18-11.96-17.18-26.83,0-13.56,4.7-22.26,13.96-25.86,7.71-3.06,18.12-4.61,30.93-4.61h3.27c10.9,0,20.29.95,27.98,2.82,2.92.71,5.75,1.73,8.39,3.19,1,.55,2,1.18,2.84,1.85,5.26,4.5,7.92,11.92,7.92,22.15v6.22h-22.44l-.12-1.93c-.6-9.31-2.37-12-3.37-12.78-1.16-1-4.46-2.55-14.51-2.55h-6.38c-1.21,0-2.5.03-3.89.07h-.61c-1.6.05-3.35.14-5.21.24h-1.59c-2.04.17-4.23.42-6.34.72-1.86.25-3.28.66-4.23,1.22l-.25.12c-.97.41-1.69.99-2.14,1.73-.57.92-.92,1.91-1.06,2.99-.1.76-.15,1.43-.15,2.03v1.83c0,4.13.69,7.07,2.07,8.77.38.47,2.22,2.02,10.76,2.64,2.39.18,4.76.28,7.28.28h7.29c5.72.1,11.32.51,16.69,1.21,5.33.72,10.14,1.63,14.3,2.73h0c7.16,1.88,11.95,4.52,14.32,11.87"/>
    <polygon class="st12" points="-1564.24 -564.72 -1479.52 -564.72 -1479.52 -583.41 -1541.83 -583.41 -1541.83 -608.44 -1482.05 -608.44 -1482.05 -627.13 -1541.83 -627.13 -1541.83 -649.33 -1479.52 -649.33 -1479.52 -668.32 -1564.24 -668.32 -1564.24 -564.72"/>
    <path class="st12" d="M-1388.2-629.03l22.65-.06v-2.46c-.73-16.38-5.44-26.29-11.88-30.89-3.05-2.18-7.31-3.75-13.02-4.81-5.46-1.01-12.44-1.52-20.75-1.52h-5.8c-1.89,0-3.89.05-5.91.15-1.79.1-3.72.22-5.76.38-2.06.15-3.99.33-5.77.52-6.42.61-12.03,1.91-16.66,3.87-2.75,1.17-5.13,2.58-7.1,4.22-1.63,1.25-3.71,3.88-3.71,3.88-4.61,6.18-6.95,14.45-6.95,24.57v20.54c.1,10.27,1.64,20.09,4.57,29.19,3.55,10.45,14.63,16.27,33.04,17.31,0,0,27.03.93,35.69-.6,9.94-1.75,17.71-3.69,22.75-8.51,5.11-4.89,7.5-11.63,7.5-19.61l-.14-6.43-.1-6.87h-22.7v6.59l.15,8.58c.01,3.08-1.71,4.79-2.82,5.35-2.16,1.1-5.32,1.8-9.41,2.08-3.73.29-7.36.47-10.8.51-4.51.07-9.12.22-14.16,0-1.12-.05-2.31-.12-3.61-.23-3.02-.18-5.82-.61-8.3-1.27-2.12-.56-3.6-1.44-4.41-2.6l-.69-.99c-.67-1.26-1.18-2.79-1.51-4.56-.48-2.54-.82-5.24-1.01-8.01-.09-1.67-.17-3.29-.22-4.86-.05-1.57-.08-3.09-.08-4.62l-.14-4.85v-16.84c0-5.93.89-10.32,2.69-13.12.74-1.25,3.33-3.43,12.45-3.9,4.16-.2,8.3-.34,12.29-.44,4.06-.1,8.19-.25,12.3-.15,10.6.26,13.06,1.89,13.57,2.61,0,0,3.6,2.97,3.77,17.84"/>
    <path class="st12" d="M-1669.14-569.49c-14.6-31.69-26.54-57.59-35.81-77.67-1.2-2.61-2.35-5.1-3.47-7.5l-10.58,26.23c1.15,2.66,2.27,5.24,3.35,7.75,2.28,5.29,4.42,10.25,6.43,14.9h-31.17c5.42-12.46,10.31-23.65,14.66-33.58.34-.77.68-1.54,1.01-2.29l10.05-26.52-.06-.15h-19.33l-.65,1.42c-22.72,49.34-37.37,81.2-44.78,97.42l-1.62,3.59h23.33l9.27-21.32h47.29c3.55,8.19,6.38,14.79,8.54,19.83l.64,1.49h24.55l-1.66-3.61Z"/>
    <path class="st12" d="M-1252.65-569.49c-14.6-31.69-26.54-57.59-35.82-77.67-1.2-2.61-2.35-5.09-3.46-7.5l-10.58,26.23c1.15,2.66,2.26,5.25,3.35,7.75,2.28,5.29,4.42,10.25,6.43,14.9h-31.17c5.42-12.46,10.31-23.66,14.66-33.58.34-.77.68-1.54,1.01-2.29l10.05-26.51-.06-.15h-19.33l-.65,1.42c-22.72,49.34-37.37,81.2-44.77,97.42l-1.62,3.59h23.33l9.27-21.32h47.29c3.54,8.19,6.39,14.79,8.54,19.83l.64,1.49h24.55l-1.66-3.61Z"/>
    <text class="st4" transform="translate(-1868.54 -510.31)"><tspan x="0" y="0">Servicios de asistencia técnica a empresas C.A.</tspan></text>
  </g>
  <g>
    <polygon class="st12" points="-589.17 -648.77 -541.42 -648.77 -541.42 -565.88 -518.53 -565.88 -518.53 -648.77 -481.35 -648.77 -481.35 -668.27 -599.14 -668.27 -589.17 -648.77"/>
    <polygon class="st12" points="-978.23 -559.1 -931.76 -559.1 -931.76 -672.76 -978.23 -642.37 -978.23 -559.1"/>
    <polygon class="st12" points="-918.55 -559.1 -872.08 -559.1 -872.08 -672.76 -918.55 -642.37 -918.55 -559.1"/>
    <polygon class="st12" points="-858.87 -559.1 -812.4 -589.48 -812.4 -615.93 -858.87 -615.93 -858.87 -559.1"/>
    <path class="st12" d="M-695.63-564.55l-1.75.18c-.61.07-1.25.14-1.88.18-1.9.1-3.78.17-5.63.23-1.99.04-3.81.13-5.56.21-2.07.11-3.96.17-5.76.17h-5.64c-12.34,0-23-1.32-31.68-3.92-10.26-3.24-15.44-11.97-15.44-25.96v-1.57c0-.61.05-1.11.15-1.53v-.18c0-.34.06-.67.17-1.01,0-.46.03-1.01.06-1.68.06-.81.08-1.28.08-1.47v-2.06h22.4v2.06c0,12.32,1.89,15.28,2.71,15.98.88.84,4.19,2.63,17.39,2.63h11.16c8.68,0,14.8-.8,18.17-2.36,1.78-.99,2.82-4.75,2.82-10.53,0-6.11-1.28-8.26-2.05-9-.57-.57-2.81-1.88-11.61-2.27-1.68-.08-3.39-.16-5.17-.2-1.77-.06-3.54-.08-5.31-.08-6.4-.21-12.3-.67-17.58-1.36-5.64-.73-10.7-1.67-15.47-2.86-11.4-2.93-17.18-11.96-17.18-26.83,0-13.56,4.7-22.26,13.96-25.86,7.71-3.06,18.12-4.61,30.93-4.61h3.27c10.9,0,20.29.95,27.98,2.82,2.92.71,5.75,1.73,8.39,3.19,1,.55,2,1.18,2.84,1.85,5.26,4.5,7.92,11.92,7.92,22.15v6.22h-22.44l-.12-1.93c-.6-9.31-2.37-12-3.37-12.78-1.16-1-4.46-2.55-14.51-2.55h-6.38c-1.21,0-2.5.03-3.89.07h-.61c-1.6.05-3.35.14-5.21.24h-1.59c-2.04.17-4.23.42-6.34.72-1.86.25-3.28.66-4.23,1.22l-.25.12c-.97.41-1.69.99-2.14,1.73-.57.92-.92,1.91-1.06,2.99-.1.76-.15,1.43-.15,2.03v1.83c0,4.13.69,7.07,2.07,8.77.38.47,2.22,2.02,10.76,2.64,2.39.18,4.76.28,7.28.28h7.29c5.72.1,11.32.51,16.69,1.21,5.33.72,10.14,1.63,14.3,2.73h0c7.16,1.88,11.95,4.52,14.32,11.87"/>
    <polygon class="st12" points="-464.24 -564.72 -379.52 -564.72 -379.52 -583.41 -441.83 -583.41 -441.83 -608.44 -382.05 -608.44 -382.05 -627.13 -441.83 -627.13 -441.83 -649.33 -379.52 -649.33 -379.52 -668.32 -464.24 -668.32 -464.24 -564.72"/>
    <path class="st12" d="M-288.2-629.03l22.65-.06v-2.46c-.73-16.38-5.44-26.29-11.88-30.89-3.05-2.18-7.31-3.75-13.02-4.81-5.46-1.01-12.44-1.52-20.75-1.52h-5.8c-1.89,0-3.89.05-5.91.15-1.79.1-3.72.22-5.76.38-2.06.15-3.99.33-5.77.52-6.42.61-12.03,1.91-16.66,3.87-2.75,1.17-5.13,2.58-7.1,4.22-1.63,1.25-3.71,3.88-3.71,3.88-4.61,6.18-6.95,14.45-6.95,24.57v20.54c.1,10.27,1.64,20.09,4.57,29.19,3.55,10.45,14.63,16.27,33.04,17.31,0,0,27.03.93,35.69-.6,9.94-1.75,17.71-3.69,22.75-8.51,5.11-4.89,7.5-11.63,7.5-19.61l-.14-6.43-.1-6.87h-22.7v6.59l.15,8.58c.01,3.08-1.71,4.79-2.82,5.35-2.16,1.1-5.32,1.8-9.41,2.08-3.73.29-7.36.47-10.8.51-4.51.07-9.12.22-14.16,0-1.12-.05-2.31-.12-3.61-.23-3.02-.18-5.82-.61-8.3-1.27-2.12-.56-3.6-1.44-4.41-2.6l-.69-.99c-.67-1.26-1.18-2.79-1.51-4.56-.48-2.54-.82-5.24-1.01-8.01-.09-1.67-.17-3.29-.22-4.86-.05-1.57-.08-3.09-.08-4.62l-.14-4.85v-16.84c0-5.93.89-10.32,2.69-13.12.74-1.25,3.33-3.43,12.45-3.9,4.16-.2,8.3-.34,12.29-.44,4.06-.1,8.19-.25,12.3-.15,10.6.26,13.06,1.89,13.57,2.61,0,0,3.6,2.97,3.77,17.84"/>
    <path class="st12" d="M-569.14-569.49c-14.6-31.69-26.54-57.59-35.81-77.67-1.2-2.61-2.35-5.1-3.47-7.5l-10.58,26.23c1.15,2.66,2.27,5.24,3.35,7.75,2.28,5.29,4.42,10.25,6.43,14.9h-31.17c5.42-12.46,10.31-23.65,14.66-33.58.34-.77.68-1.54,1.01-2.29l10.05-26.52-.06-.15h-19.33l-.65,1.42c-22.72,49.34-37.37,81.2-44.78,97.42l-1.62,3.59h23.33l9.27-21.32h47.29c3.55,8.19,6.38,14.79,8.54,19.83l.64,1.49h24.55l-1.66-3.61Z"/>
    <path class="st12" d="M-152.65-569.49c-14.6-31.69-26.54-57.59-35.82-77.67-1.2-2.61-2.35-5.09-3.46-7.5l-10.58,26.23c1.15,2.66,2.26,5.25,3.35,7.75,2.28,5.29,4.42,10.25,6.43,14.9h-31.17c5.42-12.46,10.31-23.66,14.66-33.58.34-.77.68-1.54,1.01-2.29l10.05-26.51-.06-.15h-19.33l-.65,1.42c-22.72,49.34-37.37,81.2-44.77,97.42l-1.62,3.59h23.33l9.27-21.32h47.29c3.54,8.19,6.39,14.79,8.54,19.83l.64,1.49h24.55l-1.66-3.61Z"/>
    <text class="st4" transform="translate(-768.54 -510.31)"><tspan x="0" y="0">Servicios de asistencia técnica a empresas C.A.</tspan></text>
  </g>
  <g>
    <polygon class="st12" points="-589.17 479.46 -541.42 479.46 -541.42 562.35 -518.53 562.35 -518.53 479.46 -481.35 479.46 -481.35 459.96 -599.14 459.96 -589.17 479.46"/>
    <polygon class="st12" points="-978.23 569.13 -931.76 569.13 -931.76 455.47 -978.23 485.86 -978.23 569.13"/>
    <polygon class="st12" points="-918.55 569.13 -872.08 569.13 -872.08 455.47 -918.55 485.86 -918.55 569.13"/>
    <polygon class="st12" points="-858.87 569.13 -812.4 538.75 -812.4 512.3 -858.87 512.3 -858.87 569.13"/>
    <path class="st12" d="M-695.63,563.68l-1.75.18c-.61.07-1.25.14-1.88.18-1.9.1-3.78.17-5.63.23-1.99.04-3.81.13-5.56.21-2.07.11-3.96.17-5.76.17h-5.64c-12.34,0-23-1.32-31.68-3.92-10.26-3.24-15.44-11.97-15.44-25.96v-1.57c0-.61.05-1.11.15-1.53v-.18c0-.34.06-.67.17-1.01,0-.46.03-1.01.06-1.68.06-.81.08-1.28.08-1.47v-2.06h22.4v2.06c0,12.32,1.89,15.28,2.71,15.98.88.84,4.19,2.63,17.39,2.63h11.16c8.68,0,14.8-.8,18.17-2.36,1.78-.99,2.82-4.75,2.82-10.53,0-6.11-1.28-8.26-2.05-9-.57-.57-2.81-1.88-11.61-2.27-1.68-.08-3.39-.16-5.17-.2-1.77-.06-3.54-.08-5.31-.08-6.4-.21-12.3-.67-17.58-1.36-5.64-.73-10.7-1.67-15.47-2.86-11.4-2.93-17.18-11.96-17.18-26.83,0-13.56,4.7-22.26,13.96-25.86,7.71-3.06,18.12-4.61,30.93-4.61h3.27c10.9,0,20.29.95,27.98,2.82,2.92.71,5.75,1.73,8.39,3.19,1,.55,2,1.18,2.84,1.85,5.26,4.5,7.92,11.92,7.92,22.15v6.22h-22.44l-.12-1.93c-.6-9.31-2.37-12-3.37-12.78-1.16-1-4.46-2.55-14.51-2.55h-6.38c-1.21,0-2.5.03-3.89.07h-.61c-1.6.05-3.35.14-5.21.24h-1.59c-2.04.17-4.23.42-6.34.72-1.86.25-3.28.66-4.23,1.22l-.25.12c-.97.41-1.69.99-2.14,1.73-.57.92-.92,1.91-1.06,2.99-.1.76-.15,1.43-.15,2.03v1.83c0,4.13.69,7.07,2.07,8.77.38.47,2.22,2.02,10.76,2.64,2.39.18,4.76.28,7.28.28h7.29c5.72.1,11.32.51,16.69,1.21,5.33.72,10.14,1.63,14.3,2.73h0c7.16,1.88,11.95,4.52,14.32,11.87"/>
    <polygon class="st12" points="-464.24 563.51 -379.52 563.51 -379.52 544.82 -441.83 544.82 -441.83 519.79 -382.05 519.79 -382.05 501.1 -441.83 501.1 -441.83 478.9 -379.52 478.9 -379.52 459.91 -464.24 459.91 -464.24 563.51"/>
    <path class="st12" d="M-288.2,499.2l22.65-.06v-2.46c-.73-16.38-5.44-26.29-11.88-30.89-3.05-2.18-7.31-3.75-13.02-4.81-5.46-1.01-12.44-1.52-20.75-1.52h-5.8c-1.89,0-3.89.05-5.91.15-1.79.1-3.72.22-5.76.38-2.06.15-3.99.33-5.77.52-6.42.61-12.03,1.91-16.66,3.87-2.75,1.17-5.13,2.58-7.1,4.22-1.63,1.25-3.71,3.88-3.71,3.88-4.61,6.18-6.95,14.45-6.95,24.57v20.54c.1,10.27,1.64,20.09,4.57,29.19,3.55,10.45,14.63,16.27,33.04,17.31,0,0,27.03.93,35.69-.6,9.94-1.75,17.71-3.69,22.75-8.51,5.11-4.89,7.5-11.63,7.5-19.61l-.14-6.43-.1-6.87h-22.7v6.59l.15,8.58c.01,3.08-1.71,4.79-2.82,5.35-2.16,1.1-5.32,1.8-9.41,2.08-3.73.29-7.36.47-10.8.51-4.51.07-9.12.22-14.16,0-1.12-.05-2.31-.12-3.61-.23-3.02-.18-5.82-.61-8.3-1.27-2.12-.56-3.6-1.44-4.41-2.6l-.69-.99c-.67-1.26-1.18-2.79-1.51-4.56-.48-2.54-.82-5.24-1.01-8.01-.09-1.67-.17-3.29-.22-4.86-.05-1.57-.08-3.09-.08-4.62l-.14-4.85v-16.84c0-5.93.89-10.32,2.69-13.12.74-1.25,3.33-3.43,12.45-3.9,4.16-.2,8.3-.34,12.29-.44,4.06-.1,8.19-.25,12.3-.15,10.6.26,13.06,1.89,13.57,2.61,0,0,3.6,2.97,3.77,17.84"/>
    <path class="st12" d="M-569.14,558.74c-14.6-31.69-26.54-57.59-35.81-77.67-1.2-2.61-2.35-5.1-3.47-7.5l-10.58,26.23c1.15,2.66,2.27,5.24,3.35,7.75,2.28,5.29,4.42,10.25,6.43,14.9h-31.17c5.42-12.46,10.31-23.65,14.66-33.58.34-.77.68-1.54,1.01-2.29l10.05-26.52-.06-.15h-19.33l-.65,1.42c-22.72,49.34-37.37,81.2-44.78,97.42l-1.62,3.59h23.33l9.27-21.32h47.29c3.55,8.19,6.38,14.79,8.54,19.83l.64,1.49h24.55l-1.66-3.61Z"/>
    <path class="st12" d="M-152.65,558.74c-14.6-31.69-26.54-57.59-35.82-77.67-1.2-2.61-2.35-5.09-3.46-7.5l-10.58,26.23c1.15,2.66,2.26,5.25,3.35,7.75,2.28,5.29,4.42,10.25,6.43,14.9h-31.17c5.42-12.46,10.31-23.66,14.66-33.58.34-.77.68-1.54,1.01-2.29l10.05-26.51-.06-.15h-19.33l-.65,1.42c-22.72,49.34-37.37,81.2-44.77,97.42l-1.62,3.59h23.33l9.27-21.32h47.29c3.54,8.19,6.39,14.79,8.54,19.83l.64,1.49h24.55l-1.66-3.61Z"/>
    <text class="st6" transform="translate(-768.55 618.29)"><tspan x="0" y="0">Servicios de asistencia técnica a empresas C.A.</tspan></text>
  </g>
  <g>
    <polygon class="st12" points="510.83 479.46 558.58 479.46 558.58 562.35 581.47 562.35 581.47 479.46 618.65 479.46 618.65 459.96 500.87 459.96 510.83 479.46"/>
    <polygon class="st12" points="121.77 569.13 168.24 569.13 168.24 455.47 121.77 485.86 121.77 569.13"/>
    <polygon class="st12" points="181.45 569.13 227.92 569.13 227.92 455.47 181.45 485.86 181.45 569.13"/>
    <polygon class="st12" points="241.13 569.13 287.6 538.75 287.6 512.3 241.13 512.3 241.13 569.13"/>
    <path class="st12" d="M404.37,563.68l-1.75.18c-.61.07-1.25.14-1.88.18-1.9.1-3.78.17-5.63.23-1.99.04-3.81.13-5.56.21-2.07.11-3.96.17-5.76.17h-5.64c-12.34,0-23-1.32-31.68-3.92-10.26-3.24-15.44-11.97-15.44-25.96v-1.57c0-.61.05-1.11.15-1.53v-.18c0-.34.06-.67.17-1.01,0-.46.03-1.01.06-1.68.06-.81.08-1.28.08-1.47v-2.06h22.4v2.06c0,12.32,1.89,15.28,2.71,15.98.88.84,4.19,2.63,17.39,2.63h11.16c8.68,0,14.8-.8,18.17-2.36,1.78-.99,2.82-4.75,2.82-10.53,0-6.11-1.28-8.26-2.05-9-.57-.57-2.81-1.88-11.61-2.27-1.68-.08-3.39-.16-5.17-.2-1.77-.06-3.54-.08-5.31-.08-6.4-.21-12.3-.67-17.58-1.36-5.64-.73-10.7-1.67-15.47-2.86-11.4-2.93-17.18-11.96-17.18-26.83,0-13.56,4.7-22.26,13.96-25.86,7.71-3.06,18.12-4.61,30.93-4.61h3.27c10.9,0,20.29.95,27.98,2.82,2.92.71,5.75,1.73,8.39,3.19,1,.55,2,1.18,2.84,1.85,5.26,4.5,7.92,11.92,7.92,22.15v6.22h-22.44l-.12-1.93c-.6-9.31-2.37-12-3.37-12.78-1.16-1-4.46-2.55-14.51-2.55h-6.38c-1.21,0-2.5.03-3.89.07h-.61c-1.6.05-3.35.14-5.21.24h-1.59c-2.04.17-4.23.42-6.34.72-1.86.25-3.28.66-4.23,1.22l-.25.12c-.97.41-1.69.99-2.14,1.73-.57.92-.92,1.91-1.06,2.99-.1.76-.15,1.43-.15,2.03v1.83c0,4.13.69,7.07,2.07,8.77.38.47,2.22,2.02,10.76,2.64,2.39.18,4.76.28,7.28.28h7.29c5.72.1,11.32.51,16.69,1.21,5.33.72,10.14,1.63,14.3,2.73h0c7.16,1.88,11.95,4.52,14.32,11.87"/>
    <polygon class="st12" points="635.76 563.51 720.48 563.51 720.48 544.82 658.17 544.82 658.17 519.79 717.95 519.79 717.95 501.1 658.17 501.1 658.17 478.9 720.48 478.9 720.48 459.91 635.76 459.91 635.76 563.51"/>
    <path class="st12" d="M811.8,499.2l22.65-.06v-2.46c-.73-16.38-5.44-26.29-11.88-30.89-3.05-2.18-7.31-3.75-13.02-4.81-5.46-1.01-12.44-1.52-20.75-1.52h-5.8c-1.89,0-3.89.05-5.91.15-1.79.1-3.72.22-5.76.38-2.06.15-3.99.33-5.77.52-6.42.61-12.03,1.91-16.66,3.87-2.75,1.17-5.13,2.58-7.1,4.22-1.63,1.25-3.71,3.88-3.71,3.88-4.61,6.18-6.95,14.45-6.95,24.57v20.54c.1,10.27,1.64,20.09,4.57,29.19,3.55,10.45,14.63,16.27,33.04,17.31,0,0,27.03.93,35.69-.6,9.94-1.75,17.71-3.69,22.75-8.51,5.11-4.89,7.5-11.63,7.5-19.61l-.14-6.43-.1-6.87h-22.7v6.59l.15,8.58c.01,3.08-1.71,4.79-2.82,5.35-2.16,1.1-5.32,1.8-9.41,2.08-3.73.29-7.36.47-10.8.51-4.51.07-9.12.22-14.16,0-1.12-.05-2.31-.12-3.61-.23-3.02-.18-5.82-.61-8.3-1.27-2.12-.56-3.6-1.44-4.41-2.6l-.69-.99c-.67-1.26-1.18-2.79-1.51-4.56-.48-2.54-.82-5.24-1.01-8.01-.09-1.67-.17-3.29-.22-4.86-.05-1.57-.08-3.09-.08-4.62l-.14-4.85v-16.84c0-5.93.89-10.32,2.69-13.12.74-1.25,3.33-3.43,12.45-3.9,4.16-.2,8.3-.34,12.29-.44,4.06-.1,8.19-.25,12.3-.15,10.6.26,13.06,1.89,13.57,2.61,0,0,3.6,2.97,3.77,17.84"/>
    <path class="st12" d="M530.86,558.74c-14.6-31.69-26.54-57.59-35.81-77.67-1.2-2.61-2.35-5.1-3.47-7.5l-10.58,26.23c1.15,2.66,2.27,5.24,3.35,7.75,2.28,5.29,4.42,10.25,6.43,14.9h-31.17c5.42-12.46,10.31-23.65,14.66-33.58.34-.77.68-1.54,1.01-2.29l10.05-26.52-.06-.15h-19.33l-.65,1.42c-22.72,49.34-37.37,81.2-44.78,97.42l-1.62,3.59h23.33l9.27-21.32h47.29c3.55,8.19,6.38,14.79,8.54,19.83l.64,1.49h24.55l-1.66-3.61Z"/>
    <path class="st12" d="M947.35,558.74c-14.6-31.69-26.54-57.59-35.82-77.67-1.2-2.61-2.35-5.09-3.46-7.5l-10.58,26.23c1.15,2.66,2.26,5.25,3.35,7.75,2.28,5.29,4.42,10.25,6.43,14.9h-31.17c5.42-12.46,10.31-23.66,14.66-33.58.34-.77.68-1.54,1.01-2.29l10.05-26.51-.06-.15h-19.33l-.65,1.42c-22.72,49.34-37.37,81.2-44.77,97.42l-1.62,3.59h23.33l9.27-21.32h47.29c3.54,8.19,6.39,14.79,8.54,19.83l.64,1.49h24.55l-1.66-3.61Z"/>
    <text class="st6" transform="translate(331.46 618.29)"><tspan x="0" y="0">Servicios de asistencia técnica a empresas C.A.</tspan></text>
  </g>
  <g>
    <polygon class="st12" points="510.83 -648.77 558.58 -648.77 558.58 -565.88 581.47 -565.88 581.47 -648.77 618.65 -648.77 618.65 -668.27 500.87 -668.27 510.83 -648.77"/>
    <polygon class="st12" points="121.77 -559.1 168.24 -559.1 168.24 -672.76 121.77 -642.37 121.77 -559.1"/>
    <polygon class="st12" points="181.45 -559.1 227.92 -559.1 227.92 -672.76 181.45 -642.37 181.45 -559.1"/>
    <polygon class="st12" points="241.13 -559.1 287.6 -589.48 287.6 -615.93 241.13 -615.93 241.13 -559.1"/>
    <path class="st12" d="M404.37-564.55l-1.75.18c-.61.07-1.25.14-1.88.18-1.9.1-3.78.17-5.63.23-1.99.04-3.81.13-5.56.21-2.07.11-3.96.17-5.76.17h-5.64c-12.34,0-23-1.32-31.68-3.92-10.26-3.24-15.44-11.97-15.44-25.96v-1.57c0-.61.05-1.11.15-1.53v-.18c0-.34.06-.67.17-1.01,0-.46.03-1.01.06-1.68.06-.81.08-1.28.08-1.47v-2.06h22.4v2.06c0,12.32,1.89,15.28,2.71,15.98.88.84,4.19,2.63,17.39,2.63h11.16c8.68,0,14.8-.8,18.17-2.36,1.78-.99,2.82-4.75,2.82-10.53,0-6.11-1.28-8.26-2.05-9-.57-.57-2.81-1.88-11.61-2.27-1.68-.08-3.39-.16-5.17-.2-1.77-.06-3.54-.08-5.31-.08-6.4-.21-12.3-.67-17.58-1.36-5.64-.73-10.7-1.67-15.47-2.86-11.4-2.93-17.18-11.96-17.18-26.83,0-13.56,4.7-22.26,13.96-25.86,7.71-3.06,18.12-4.61,30.93-4.61h3.27c10.9,0,20.29.95,27.98,2.82,2.92.71,5.75,1.73,8.39,3.19,1,.55,2,1.18,2.84,1.85,5.26,4.5,7.92,11.92,7.92,22.15v6.22h-22.44l-.12-1.93c-.6-9.31-2.37-12-3.37-12.78-1.16-1-4.46-2.55-14.51-2.55h-6.38c-1.21,0-2.5.03-3.89.07h-.61c-1.6.05-3.35.14-5.21.24h-1.59c-2.04.17-4.23.42-6.34.72-1.86.25-3.28.66-4.23,1.22l-.25.12c-.97.41-1.69.99-2.14,1.73-.57.92-.92,1.91-1.06,2.99-.1.76-.15,1.43-.15,2.03v1.83c0,4.13.69,7.07,2.07,8.77.38.47,2.22,2.02,10.76,2.64,2.39.18,4.76.28,7.28.28h7.29c5.72.1,11.32.51,16.69,1.21,5.33.72,10.14,1.63,14.3,2.73h0c7.16,1.88,11.95,4.52,14.32,11.87"/>
    <polygon class="st12" points="635.76 -564.72 720.48 -564.72 720.48 -583.41 658.17 -583.41 658.17 -608.44 717.95 -608.44 717.95 -627.13 658.17 -627.13 658.17 -649.33 720.48 -649.33 720.48 -668.32 635.76 -668.32 635.76 -564.72"/>
    <path class="st12" d="M811.8-629.03l22.65-.06v-2.46c-.73-16.38-5.44-26.29-11.88-30.89-3.05-2.18-7.31-3.75-13.02-4.81-5.46-1.01-12.44-1.52-20.75-1.52h-5.8c-1.89,0-3.89.05-5.91.15-1.79.1-3.72.22-5.76.38-2.06.15-3.99.33-5.77.52-6.42.61-12.03,1.91-16.66,3.87-2.75,1.17-5.13,2.58-7.1,4.22-1.63,1.25-3.71,3.88-3.71,3.88-4.61,6.18-6.95,14.45-6.95,24.57v20.54c.1,10.27,1.64,20.09,4.57,29.19,3.55,10.45,14.63,16.27,33.04,17.31,0,0,27.03.93,35.69-.6,9.94-1.75,17.71-3.69,22.75-8.51,5.11-4.89,7.5-11.63,7.5-19.61l-.14-6.43-.1-6.87h-22.7v6.59l.15,8.58c.01,3.08-1.71,4.79-2.82,5.35-2.16,1.1-5.32,1.8-9.41,2.08-3.73.29-7.36.47-10.8.51-4.51.07-9.12.22-14.16,0-1.12-.05-2.31-.12-3.61-.23-3.02-.18-5.82-.61-8.3-1.27-2.12-.56-3.6-1.44-4.41-2.6l-.69-.99c-.67-1.26-1.18-2.79-1.51-4.56-.48-2.54-.82-5.24-1.01-8.01-.09-1.67-.17-3.29-.22-4.86-.05-1.57-.08-3.09-.08-4.62l-.14-4.85v-16.84c0-5.93.89-10.32,2.69-13.12.74-1.25,3.33-3.43,12.45-3.9,4.16-.2,8.3-.34,12.29-.44,4.06-.1,8.19-.25,12.3-.15,10.6.26,13.06,1.89,13.57,2.61,0,0,3.6,2.97,3.77,17.84"/>
    <path class="st12" d="M530.86-569.49c-14.6-31.69-26.54-57.59-35.81-77.67-1.2-2.61-2.35-5.1-3.47-7.5l-10.58,26.23c1.15,2.66,2.27,5.24,3.35,7.75,2.28,5.29,4.42,10.25,6.43,14.9h-31.17c5.42-12.46,10.31-23.65,14.66-33.58.34-.77.68-1.54,1.01-2.29l10.05-26.52-.06-.15h-19.33l-.65,1.42c-22.72,49.34-37.37,81.2-44.78,97.42l-1.62,3.59h23.33l9.27-21.32h47.29c3.55,8.19,6.38,14.79,8.54,19.83l.64,1.49h24.55l-1.66-3.61Z"/>
    <path class="st12" d="M947.35-569.49c-14.6-31.69-26.54-57.59-35.82-77.67-1.2-2.61-2.35-5.09-3.46-7.5l-10.58,26.23c1.15,2.66,2.26,5.25,3.35,7.75,2.28,5.29,4.42,10.25,6.43,14.9h-31.17c5.42-12.46,10.31-23.66,14.66-33.58.34-.77.68-1.54,1.01-2.29l10.05-26.51-.06-.15h-19.33l-.65,1.42c-22.72,49.34-37.37,81.2-44.77,97.42l-1.62,3.59h23.33l9.27-21.32h47.29c3.54,8.19,6.39,14.79,8.54,19.83l.64,1.49h24.55l-1.66-3.61Z"/>
    <text class="st5" transform="translate(331.46 -510.31)"><tspan x="0" y="0">Servicios de asistencia técnica a empresas C.A.</tspan></text>
  </g>
  <g>
    <polygon class="st8" points="1610.83 -648.77 1658.58 -648.77 1658.58 -565.88 1681.47 -565.88 1681.47 -648.77 1718.65 -648.77 1718.65 -668.27 1600.87 -668.27 1610.83 -648.77"/>
    <polygon class="st8" points="1221.77 -559.1 1268.24 -559.1 1268.24 -672.76 1221.77 -642.37 1221.77 -559.1"/>
    <polygon class="st8" points="1281.45 -559.1 1327.92 -559.1 1327.92 -672.76 1281.45 -642.37 1281.45 -559.1"/>
    <polygon class="st8" points="1341.13 -559.1 1387.6 -589.48 1387.6 -615.93 1341.13 -615.93 1341.13 -559.1"/>
    <path class="st8" d="M1504.37-564.55l-1.75.18c-.61.07-1.25.14-1.88.18-1.9.1-3.78.17-5.63.23-1.99.04-3.81.13-5.56.21-2.07.11-3.96.17-5.76.17h-5.64c-12.34,0-23-1.32-31.68-3.92-10.26-3.24-15.44-11.97-15.44-25.96v-1.57c0-.61.05-1.11.15-1.53v-.18c0-.34.06-.67.17-1.01,0-.46.03-1.01.06-1.68.06-.81.08-1.28.08-1.47v-2.06h22.4v2.06c0,12.32,1.89,15.28,2.71,15.98.88.84,4.19,2.63,17.39,2.63h11.16c8.68,0,14.8-.8,18.17-2.36,1.78-.99,2.82-4.75,2.82-10.53,0-6.11-1.28-8.26-2.05-9-.57-.57-2.81-1.88-11.61-2.27-1.68-.08-3.39-.16-5.17-.2-1.77-.06-3.54-.08-5.31-.08-6.4-.21-12.3-.67-17.58-1.36-5.64-.73-10.7-1.67-15.47-2.86-11.4-2.93-17.18-11.96-17.18-26.83,0-13.56,4.7-22.26,13.96-25.86,7.71-3.06,18.12-4.61,30.93-4.61h3.27c10.9,0,20.29.95,27.98,2.82,2.92.71,5.75,1.73,8.39,3.19,1,.55,2,1.18,2.84,1.85,5.26,4.5,7.92,11.92,7.92,22.15v6.22h-22.44l-.12-1.93c-.6-9.31-2.37-12-3.37-12.78-1.16-1-4.46-2.55-14.51-2.55h-6.38c-1.21,0-2.5.03-3.89.07h-.61c-1.6.05-3.35.14-5.21.24h-1.59c-2.04.17-4.23.42-6.34.72-1.86.25-3.28.66-4.23,1.22l-.25.12c-.97.41-1.69.99-2.14,1.73-.57.92-.92,1.91-1.06,2.99-.1.76-.15,1.43-.15,2.03v1.83c0,4.13.69,7.07,2.07,8.77.38.47,2.22,2.02,10.76,2.64,2.39.18,4.76.28,7.28.28h7.29c5.72.1,11.32.51,16.69,1.21,5.33.72,10.14,1.63,14.3,2.73h0c7.16,1.88,11.95,4.52,14.32,11.87"/>
    <polygon class="st8" points="1735.76 -564.72 1820.48 -564.72 1820.48 -583.41 1758.17 -583.41 1758.17 -608.44 1817.95 -608.44 1817.95 -627.13 1758.17 -627.13 1758.17 -649.33 1820.48 -649.33 1820.48 -668.32 1735.76 -668.32 1735.76 -564.72"/>
    <path class="st8" d="M1911.8-629.03l22.65-.06v-2.46c-.73-16.38-5.44-26.29-11.88-30.89-3.05-2.18-7.31-3.75-13.02-4.81-5.46-1.01-12.44-1.52-20.75-1.52h-5.8c-1.89,0-3.89.05-5.91.15-1.79.1-3.72.22-5.76.38-2.06.15-3.99.33-5.77.52-6.42.61-12.03,1.91-16.66,3.87-2.75,1.17-5.13,2.58-7.1,4.22-1.63,1.25-3.71,3.88-3.71,3.88-4.61,6.18-6.95,14.45-6.95,24.57v20.54c.1,10.27,1.64,20.09,4.57,29.19,3.55,10.45,14.63,16.27,33.04,17.31,0,0,27.03.93,35.69-.6,9.94-1.75,17.71-3.69,22.75-8.51,5.11-4.89,7.5-11.63,7.5-19.61l-.14-6.43-.1-6.87h-22.7v6.59l.15,8.58c.01,3.08-1.71,4.79-2.82,5.35-2.16,1.1-5.32,1.8-9.41,2.08-3.73.29-7.36.47-10.8.51-4.51.07-9.12.22-14.16,0-1.12-.05-2.31-.12-3.61-.23-3.02-.18-5.82-.61-8.3-1.27-2.12-.56-3.6-1.44-4.41-2.6l-.69-.99c-.67-1.26-1.18-2.79-1.51-4.56-.48-2.54-.82-5.24-1.01-8.01-.09-1.67-.17-3.29-.22-4.86-.05-1.57-.08-3.09-.08-4.62l-.14-4.85v-16.84c0-5.93.89-10.32,2.69-13.12.74-1.25,3.33-3.43,12.45-3.9,4.16-.2,8.3-.34,12.29-.44,4.06-.1,8.19-.25,12.3-.15,10.6.26,13.06,1.89,13.57,2.61,0,0,3.6,2.97,3.77,17.84"/>
    <path class="st8" d="M1630.86-569.49c-14.6-31.69-26.54-57.59-35.81-77.67-1.2-2.61-2.35-5.1-3.47-7.5l-10.58,26.23c1.15,2.66,2.27,5.24,3.35,7.75,2.28,5.29,4.42,10.25,6.43,14.9h-31.17c5.42-12.46,10.31-23.65,14.66-33.58.34-.77.68-1.54,1.01-2.29l10.05-26.52-.06-.15h-19.33l-.65,1.42c-22.72,49.34-37.37,81.2-44.78,97.42l-1.62,3.59h23.33l9.27-21.32h47.29c3.55,8.19,6.38,14.79,8.54,19.83l.64,1.49h24.55l-1.66-3.61Z"/>
    <path class="st8" d="M2047.35-569.49c-14.6-31.69-26.54-57.59-35.82-77.67-1.2-2.61-2.35-5.09-3.46-7.5l-10.58,26.23c1.15,2.66,2.26,5.25,3.35,7.75,2.28,5.29,4.42,10.25,6.43,14.9h-31.17c5.42-12.46,10.31-23.66,14.66-33.58.34-.77.68-1.54,1.01-2.29l10.05-26.51-.06-.15h-19.33l-.65,1.42c-22.72,49.34-37.37,81.2-44.77,97.42l-1.62,3.59h23.33l9.27-21.32h47.29c3.54,8.19,6.39,14.79,8.54,19.83l.64,1.49h24.55l-1.66-3.61Z"/>
    <text class="st2" transform="translate(1431.46 -510.31)"><tspan x="0" y="0">Servicios de asistencia técnica a empresas C.A.</tspan></text>
  </g>
  <g>
    <polygon class="st10" points="2710.83 -648.77 2758.58 -648.77 2758.58 -565.88 2781.47 -565.88 2781.47 -648.77 2818.65 -648.77 2818.65 -668.27 2700.86 -668.27 2710.83 -648.77"/>
    <polygon class="st10" points="2321.77 -559.1 2368.24 -559.1 2368.24 -672.76 2321.77 -642.37 2321.77 -559.1"/>
    <polygon class="st10" points="2381.45 -559.1 2427.92 -559.1 2427.92 -672.76 2381.45 -642.37 2381.45 -559.1"/>
    <polygon class="st10" points="2441.13 -559.1 2487.6 -589.48 2487.6 -615.93 2441.13 -615.93 2441.13 -559.1"/>
    <path class="st10" d="M2604.37-564.55l-1.75.18c-.61.07-1.25.14-1.88.18-1.9.1-3.78.17-5.63.23-1.99.04-3.81.13-5.56.21-2.07.11-3.96.17-5.76.17h-5.64c-12.34,0-23-1.32-31.68-3.92-10.26-3.24-15.44-11.97-15.44-25.96v-1.57c0-.61.05-1.11.15-1.53v-.18c0-.34.06-.67.17-1.01,0-.46.03-1.01.06-1.68.06-.81.08-1.28.08-1.47v-2.06h22.4v2.06c0,12.32,1.89,15.28,2.71,15.98.88.84,4.19,2.63,17.39,2.63h11.16c8.68,0,14.8-.8,18.17-2.36,1.78-.99,2.82-4.75,2.82-10.53,0-6.11-1.28-8.26-2.05-9-.57-.57-2.81-1.88-11.61-2.27-1.68-.08-3.39-.16-5.17-.2-1.77-.06-3.54-.08-5.31-.08-6.4-.21-12.3-.67-17.58-1.36-5.64-.73-10.7-1.67-15.47-2.86-11.4-2.93-17.18-11.96-17.18-26.83,0-13.56,4.7-22.26,13.96-25.86,7.71-3.06,18.12-4.61,30.93-4.61h3.27c10.9,0,20.29.95,27.98,2.82,2.92.71,5.75,1.73,8.39,3.19,1,.55,2,1.18,2.84,1.85,5.26,4.5,7.92,11.92,7.92,22.15v6.22h-22.44l-.12-1.93c-.6-9.31-2.37-12-3.37-12.78-1.16-1-4.46-2.55-14.51-2.55h-6.38c-1.21,0-2.5.03-3.89.07h-.61c-1.6.05-3.35.14-5.21.24h-1.59c-2.04.17-4.23.42-6.34.72-1.86.25-3.28.66-4.23,1.22l-.25.12c-.97.41-1.69.99-2.14,1.73-.57.92-.92,1.91-1.06,2.99-.1.76-.15,1.43-.15,2.03v1.83c0,4.13.69,7.07,2.07,8.77.38.47,2.22,2.02,10.76,2.64,2.39.18,4.76.28,7.28.28h7.29c5.72.1,11.32.51,16.69,1.21,5.33.72,10.14,1.63,14.3,2.73h0c7.16,1.88,11.95,4.52,14.32,11.87"/>
    <polygon class="st10" points="2835.76 -564.72 2920.48 -564.72 2920.48 -583.41 2858.17 -583.41 2858.17 -608.44 2917.95 -608.44 2917.95 -627.13 2858.17 -627.13 2858.17 -649.33 2920.48 -649.33 2920.48 -668.32 2835.76 -668.32 2835.76 -564.72"/>
    <path class="st10" d="M3011.8-629.03l22.65-.06v-2.46c-.73-16.38-5.44-26.29-11.88-30.89-3.05-2.18-7.31-3.75-13.02-4.81-5.46-1.01-12.44-1.52-20.75-1.52h-5.8c-1.89,0-3.89.05-5.91.15-1.79.1-3.72.22-5.76.38-2.06.15-3.99.33-5.77.52-6.42.61-12.03,1.91-16.66,3.87-2.75,1.17-5.13,2.58-7.1,4.22-1.63,1.25-3.71,3.88-3.71,3.88-4.61,6.18-6.95,14.45-6.95,24.57v20.54c.1,10.27,1.64,20.09,4.57,29.19,3.55,10.45,14.63,16.27,33.04,17.31,0,0,27.03.93,35.69-.6,9.94-1.75,17.71-3.69,22.75-8.51,5.11-4.89,7.5-11.63,7.5-19.61l-.14-6.43-.1-6.87h-22.7v6.59l.15,8.58c.01,3.08-1.71,4.79-2.82,5.35-2.16,1.1-5.32,1.8-9.41,2.08-3.73.29-7.36.47-10.8.51-4.51.07-9.12.22-14.16,0-1.12-.05-2.31-.12-3.61-.23-3.02-.18-5.82-.61-8.3-1.27-2.12-.56-3.6-1.44-4.41-2.6l-.69-.99c-.67-1.26-1.18-2.79-1.51-4.56-.48-2.54-.82-5.24-1.01-8.01-.09-1.67-.17-3.29-.22-4.86-.05-1.57-.08-3.09-.08-4.62l-.14-4.85v-16.84c0-5.93.89-10.32,2.69-13.12.74-1.25,3.33-3.43,12.45-3.9,4.16-.2,8.3-.34,12.29-.44,4.06-.1,8.19-.25,12.3-.15,10.6.26,13.06,1.89,13.57,2.61,0,0,3.6,2.97,3.77,17.84"/>
    <path class="st10" d="M2730.86-569.49c-14.6-31.69-26.54-57.59-35.81-77.67-1.2-2.61-2.35-5.1-3.47-7.5l-10.58,26.23c1.15,2.66,2.27,5.24,3.35,7.75,2.28,5.29,4.42,10.25,6.43,14.9h-31.17c5.42-12.46,10.31-23.65,14.66-33.58.34-.77.68-1.54,1.01-2.29l10.05-26.52-.06-.15h-19.33l-.65,1.42c-22.72,49.34-37.37,81.2-44.78,97.42l-1.62,3.59h23.33l9.27-21.32h47.29c3.55,8.19,6.38,14.79,8.54,19.83l.64,1.49h24.55l-1.66-3.61Z"/>
    <path class="st10" d="M3147.35-569.49c-14.6-31.69-26.54-57.59-35.82-77.67-1.2-2.61-2.35-5.09-3.46-7.5l-10.58,26.23c1.15,2.66,2.26,5.25,3.35,7.75,2.28,5.29,4.42,10.25,6.43,14.9h-31.17c5.42-12.46,10.31-23.66,14.66-33.58.34-.77.68-1.54,1.01-2.29l10.05-26.51-.06-.15h-19.33l-.65,1.42c-22.72,49.34-37.37,81.2-44.77,97.42l-1.62,3.59h23.33l9.27-21.32h47.29c3.54,8.19,6.39,14.79,8.54,19.83l.64,1.49h24.55l-1.66-3.61Z"/>
    <text class="st7" transform="translate(2531.46 -510.31)"><tspan x="0" y="0">Servicios de asistencia técnica a empresas C.A.</tspan></text>
  </g>
  <g>
    <polygon class="st9" points="3810.83 -648.77 3858.58 -648.77 3858.58 -565.88 3881.47 -565.88 3881.47 -648.77 3918.65 -648.77 3918.65 -668.27 3800.87 -668.27 3810.83 -648.77"/>
    <polygon class="st9" points="3421.77 -559.1 3468.24 -559.1 3468.24 -672.76 3421.77 -642.37 3421.77 -559.1"/>
    <polygon class="st9" points="3481.45 -559.1 3527.92 -559.1 3527.92 -672.76 3481.45 -642.37 3481.45 -559.1"/>
    <polygon class="st9" points="3541.13 -559.1 3587.6 -589.48 3587.6 -615.93 3541.13 -615.93 3541.13 -559.1"/>
    <path class="st9" d="M3704.37-564.55l-1.75.18c-.61.07-1.25.14-1.88.18-1.9.1-3.78.17-5.63.23-1.99.04-3.81.13-5.56.21-2.07.11-3.96.17-5.76.17h-5.64c-12.34,0-23-1.32-31.68-3.92-10.26-3.24-15.44-11.97-15.44-25.96v-1.57c0-.61.05-1.11.15-1.53v-.18c0-.34.06-.67.17-1.01,0-.46.03-1.01.06-1.68.06-.81.08-1.28.08-1.47v-2.06h22.4v2.06c0,12.32,1.89,15.28,2.71,15.98.88.84,4.19,2.63,17.39,2.63h11.16c8.68,0,14.8-.8,18.17-2.36,1.78-.99,2.82-4.75,2.82-10.53,0-6.11-1.28-8.26-2.05-9-.57-.57-2.81-1.88-11.61-2.27-1.68-.08-3.39-.16-5.17-.2-1.77-.06-3.54-.08-5.31-.08-6.4-.21-12.3-.67-17.58-1.36-5.64-.73-10.7-1.67-15.47-2.86-11.4-2.93-17.18-11.96-17.18-26.83,0-13.56,4.7-22.26,13.96-25.86,7.71-3.06,18.12-4.61,30.93-4.61h3.27c10.9,0,20.29.95,27.98,2.82,2.92.71,5.75,1.73,8.39,3.19,1,.55,2,1.18,2.84,1.85,5.26,4.5,7.92,11.92,7.92,22.15v6.22h-22.44l-.12-1.93c-.6-9.31-2.37-12-3.37-12.78-1.16-1-4.46-2.55-14.51-2.55h-6.38c-1.21,0-2.5.03-3.89.07h-.61c-1.6.05-3.35.14-5.21.24h-1.59c-2.04.17-4.23.42-6.34.72-1.86.25-3.28.66-4.23,1.22l-.25.12c-.97.41-1.69.99-2.14,1.73-.57.92-.92,1.91-1.06,2.99-.1.76-.15,1.43-.15,2.03v1.83c0,4.13.69,7.07,2.07,8.77.38.47,2.22,2.02,10.76,2.64,2.39.18,4.76.28,7.28.28h7.29c5.72.1,11.32.51,16.69,1.21,5.33.72,10.14,1.63,14.3,2.73h0c7.16,1.88,11.95,4.52,14.32,11.87"/>
    <polygon class="st9" points="3935.76 -564.72 4020.48 -564.72 4020.48 -583.41 3958.17 -583.41 3958.17 -608.44 4017.95 -608.44 4017.95 -627.13 3958.17 -627.13 3958.17 -649.33 4020.48 -649.33 4020.48 -668.32 3935.76 -668.32 3935.76 -564.72"/>
    <path class="st9" d="M4111.8-629.03l22.65-.06v-2.46c-.73-16.38-5.44-26.29-11.88-30.89-3.05-2.18-7.31-3.75-13.02-4.81-5.46-1.01-12.44-1.52-20.75-1.52h-5.8c-1.89,0-3.89.05-5.91.15-1.79.1-3.72.22-5.76.38-2.06.15-3.99.33-5.77.52-6.42.61-12.03,1.91-16.66,3.87-2.75,1.17-5.13,2.58-7.1,4.22-1.63,1.25-3.71,3.88-3.71,3.88-4.61,6.18-6.95,14.45-6.95,24.57v20.54c.1,10.27,1.64,20.09,4.57,29.19,3.55,10.45,14.63,16.27,33.04,17.31,0,0,27.03.93,35.69-.6,9.94-1.75,17.71-3.69,22.75-8.51,5.11-4.89,7.5-11.63,7.5-19.61l-.14-6.43-.1-6.87h-22.7v6.59l.15,8.58c.01,3.08-1.71,4.79-2.82,5.35-2.16,1.1-5.32,1.8-9.41,2.08-3.73.29-7.36.47-10.8.51-4.51.07-9.12.22-14.16,0-1.12-.05-2.31-.12-3.61-.23-3.02-.18-5.82-.61-8.3-1.27-2.12-.56-3.6-1.44-4.41-2.6l-.69-.99c-.67-1.26-1.18-2.79-1.51-4.56-.48-2.54-.82-5.24-1.01-8.01-.09-1.67-.17-3.29-.22-4.86-.05-1.57-.08-3.09-.08-4.62l-.14-4.85v-16.84c0-5.93.89-10.32,2.69-13.12.74-1.25,3.33-3.43,12.45-3.9,4.16-.2,8.3-.34,12.29-.44,4.06-.1,8.19-.25,12.3-.15,10.6.26,13.06,1.89,13.57,2.61,0,0,3.6,2.97,3.77,17.84"/>
    <path class="st9" d="M3830.86-569.49c-14.6-31.69-26.54-57.59-35.81-77.67-1.2-2.61-2.35-5.1-3.47-7.5l-10.58,26.23c1.15,2.66,2.27,5.24,3.35,7.75,2.28,5.29,4.42,10.25,6.43,14.9h-31.17c5.42-12.46,10.31-23.65,14.66-33.58.34-.77.68-1.54,1.01-2.29l10.05-26.52-.06-.15h-19.33l-.65,1.42c-22.72,49.34-37.37,81.2-44.78,97.42l-1.62,3.59h23.33l9.27-21.32h47.29c3.55,8.19,6.38,14.79,8.54,19.83l.64,1.49h24.55l-1.66-3.61Z"/>
    <path class="st9" d="M4247.35-569.49c-14.6-31.69-26.54-57.59-35.82-77.67-1.2-2.61-2.35-5.09-3.46-7.5l-10.58,26.23c1.15,2.66,2.26,5.25,3.35,7.75,2.28,5.29,4.42,10.25,6.43,14.9h-31.17c5.42-12.46,10.31-23.66,14.66-33.58.34-.77.68-1.54,1.01-2.29l10.05-26.51-.06-.15h-19.33l-.65,1.42c-22.72,49.34-37.37,81.2-44.77,97.42l-1.62,3.59h23.33l9.27-21.32h47.29c3.54,8.19,6.39,14.79,8.54,19.83l.64,1.49h24.55l-1.66-3.61Z"/>
    <text class="st3" transform="translate(3631.46 -510.31)"><tspan x="0" y="0">Servicios de asistencia técnica a empresas C.A.</tspan></text>
  </g>
</svg>